<mxfile host="app.diagrams.net" modified="2021-07-09T21:38:36.659Z" agent="5.0 (X11)" etag="4gI12t-mZWAwgU52UYI2" version="14.8.5" type="github">
  <diagram id="bdX6AAFoRHsqwEOn0IiZ" name="Page-1">
    <mxGraphModel dx="935" dy="927" grid="1" gridSize="10" guides="1" tooltips="1" connect="1" arrows="1" fold="1" page="1" pageScale="1" pageWidth="850" pageHeight="1100" math="0" shadow="0">
      <root>
        <mxCell id="0" />
        <mxCell id="1" parent="0" />
        <mxCell id="kmhFah7H7Ga-kyeKgTLJ-2" value="&lt;div&gt;2.4 Ghz AP&lt;/div&gt;" style="points=[[0.03,0.36,0],[0.18,0,0],[0.5,0.34,0],[0.82,0,0],[0.97,0.36,0],[1,0.67,0],[0.975,0.975,0],[0.5,1,0],[0.025,0.975,0],[0,0.67,0]];verticalLabelPosition=bottom;html=1;verticalAlign=top;aspect=fixed;align=center;pointerEvents=1;shape=mxgraph.cisco19.wireless_access_point;fillColor=#005073;strokeColor=none;" parent="1" vertex="1">
          <mxGeometry x="580" y="270" width="50" height="50" as="geometry" />
        </mxCell>
        <mxCell id="kmhFah7H7Ga-kyeKgTLJ-5" style="edgeStyle=orthogonalEdgeStyle;rounded=0;orthogonalLoop=1;jettySize=auto;html=1;entryX=0;entryY=0.67;entryDx=0;entryDy=0;entryPerimeter=0;" parent="1" source="kmhFah7H7Ga-kyeKgTLJ-4" target="kmhFah7H7Ga-kyeKgTLJ-2" edge="1">
          <mxGeometry relative="1" as="geometry" />
        </mxCell>
        <mxCell id="kmhFah7H7Ga-kyeKgTLJ-28" value="&lt;div&gt;Eth 2&lt;/div&gt;" style="edgeLabel;html=1;align=center;verticalAlign=middle;resizable=0;points=[];" parent="kmhFah7H7Ga-kyeKgTLJ-5" vertex="1" connectable="0">
          <mxGeometry x="-0.1663" relative="1" as="geometry">
            <mxPoint as="offset" />
          </mxGeometry>
        </mxCell>
        <mxCell id="kmhFah7H7Ga-kyeKgTLJ-73" value="VLANs&lt;br&gt;&lt;div&gt;3, 4&lt;/div&gt;" style="edgeLabel;html=1;align=center;verticalAlign=middle;resizable=0;points=[];" parent="kmhFah7H7Ga-kyeKgTLJ-5" vertex="1" connectable="0">
          <mxGeometry x="0.2842" relative="1" as="geometry">
            <mxPoint x="1" y="1" as="offset" />
          </mxGeometry>
        </mxCell>
        <mxCell id="kmhFah7H7Ga-kyeKgTLJ-20" style="edgeStyle=orthogonalEdgeStyle;rounded=0;orthogonalLoop=1;jettySize=auto;html=1;exitX=0.25;exitY=0;exitDx=0;exitDy=0;exitPerimeter=0;entryX=0.5;entryY=0;entryDx=0;entryDy=0;entryPerimeter=0;" parent="1" source="kmhFah7H7Ga-kyeKgTLJ-4" target="kmhFah7H7Ga-kyeKgTLJ-6" edge="1">
          <mxGeometry relative="1" as="geometry">
            <Array as="points">
              <mxPoint x="328" y="390" />
              <mxPoint x="365" y="390" />
            </Array>
          </mxGeometry>
        </mxCell>
        <mxCell id="kmhFah7H7Ga-kyeKgTLJ-21" value="&lt;div&gt;Eth 5&lt;/div&gt;&lt;div&gt;&lt;br&gt;&lt;/div&gt;" style="edgeLabel;html=1;align=center;verticalAlign=middle;resizable=0;points=[];" parent="kmhFah7H7Ga-kyeKgTLJ-20" vertex="1" connectable="0">
          <mxGeometry x="0.1681" y="-1" relative="1" as="geometry">
            <mxPoint as="offset" />
          </mxGeometry>
        </mxCell>
        <mxCell id="kmhFah7H7Ga-kyeKgTLJ-25" value="&lt;div&gt;Eth 3&lt;/div&gt;" style="edgeStyle=orthogonalEdgeStyle;rounded=0;orthogonalLoop=1;jettySize=auto;html=1;exitX=0.985;exitY=0.015;exitDx=0;exitDy=0;exitPerimeter=0;entryX=0.25;entryY=0;entryDx=0;entryDy=0;" parent="1" source="kmhFah7H7Ga-kyeKgTLJ-4" target="kmhFah7H7Ga-kyeKgTLJ-9" edge="1">
          <mxGeometry relative="1" as="geometry">
            <Array as="points">
              <mxPoint x="281" y="380" />
              <mxPoint x="218" y="380" />
            </Array>
          </mxGeometry>
        </mxCell>
        <mxCell id="kmhFah7H7Ga-kyeKgTLJ-26" style="edgeStyle=orthogonalEdgeStyle;rounded=0;orthogonalLoop=1;jettySize=auto;html=1;exitX=0.75;exitY=0;exitDx=0;exitDy=0;exitPerimeter=0;entryX=0.5;entryY=0;entryDx=0;entryDy=0;" parent="1" source="kmhFah7H7Ga-kyeKgTLJ-4" target="kmhFah7H7Ga-kyeKgTLJ-8" edge="1">
          <mxGeometry relative="1" as="geometry" />
        </mxCell>
        <mxCell id="kmhFah7H7Ga-kyeKgTLJ-27" value="&lt;div&gt;Eth 4&lt;/div&gt;" style="edgeLabel;html=1;align=center;verticalAlign=middle;resizable=0;points=[];" parent="kmhFah7H7Ga-kyeKgTLJ-26" vertex="1" connectable="0">
          <mxGeometry x="0.2683" y="1" relative="1" as="geometry">
            <mxPoint as="offset" />
          </mxGeometry>
        </mxCell>
        <mxCell id="kmhFah7H7Ga-kyeKgTLJ-32" style="edgeStyle=orthogonalEdgeStyle;rounded=0;orthogonalLoop=1;jettySize=auto;html=1;exitX=0.015;exitY=0.985;exitDx=0;exitDy=0;exitPerimeter=0;entryX=0.5;entryY=1;entryDx=0;entryDy=0;" parent="1" source="kmhFah7H7Ga-kyeKgTLJ-4" target="kmhFah7H7Ga-kyeKgTLJ-31" edge="1">
          <mxGeometry relative="1" as="geometry" />
        </mxCell>
        <mxCell id="kmhFah7H7Ga-kyeKgTLJ-34" value="&lt;div&gt;Wlan 1&lt;/div&gt;" style="edgeLabel;html=1;align=center;verticalAlign=middle;resizable=0;points=[];" parent="kmhFah7H7Ga-kyeKgTLJ-32" vertex="1" connectable="0">
          <mxGeometry x="-0.4108" y="-4" relative="1" as="geometry">
            <mxPoint as="offset" />
          </mxGeometry>
        </mxCell>
        <mxCell id="kmhFah7H7Ga-kyeKgTLJ-4" value="Router + 5 Ghz" style="points=[[0.015,0.015,0],[0.985,0.015,0],[0.985,0.985,0],[0.015,0.985,0],[0.25,0,0],[0.5,0,0],[0.75,0,0],[1,0.25,0],[1,0.5,0],[1,0.75,0],[0.75,1,0],[0.5,1,0],[0.25,1,0],[0,0.75,0],[0,0.5,0],[0,0.25,0]];verticalLabelPosition=top;html=1;verticalAlign=bottom;aspect=fixed;align=center;pointerEvents=1;shape=mxgraph.cisco19.rect;prIcon=router_with_firewall2;fillColor=#FAFAFA;strokeColor=#005073;direction=west;labelPosition=center;" parent="1" vertex="1">
          <mxGeometry x="280" y="280" width="64" height="50" as="geometry" />
        </mxCell>
        <mxCell id="kmhFah7H7Ga-kyeKgTLJ-79" style="edgeStyle=orthogonalEdgeStyle;rounded=0;orthogonalLoop=1;jettySize=auto;html=1;entryX=-0.029;entryY=0.725;entryDx=0;entryDy=0;entryPerimeter=0;" parent="1" source="kmhFah7H7Ga-kyeKgTLJ-6" target="kmhFah7H7Ga-kyeKgTLJ-49" edge="1">
          <mxGeometry relative="1" as="geometry">
            <mxPoint x="365" y="670" as="targetPoint" />
          </mxGeometry>
        </mxCell>
        <mxCell id="ZqNnFZviPH04GMw3fCPN-6" style="edgeStyle=orthogonalEdgeStyle;rounded=0;orthogonalLoop=1;jettySize=auto;html=1;exitX=0.5;exitY=1;exitDx=0;exitDy=0;exitPerimeter=0;entryX=-0.012;entryY=0.225;entryDx=0;entryDy=0;entryPerimeter=0;" edge="1" parent="1" source="kmhFah7H7Ga-kyeKgTLJ-6" target="ZqNnFZviPH04GMw3fCPN-1">
          <mxGeometry relative="1" as="geometry">
            <mxPoint x="360" y="790" as="targetPoint" />
          </mxGeometry>
        </mxCell>
        <mxCell id="kmhFah7H7Ga-kyeKgTLJ-6" value="&lt;div&gt;Spencer&#39;s&lt;/div&gt;" style="aspect=fixed;pointerEvents=1;shadow=0;dashed=0;html=1;strokeColor=none;labelPosition=center;verticalLabelPosition=bottom;verticalAlign=top;align=center;fillColor=#00188D;shape=mxgraph.azure.laptop" parent="1" vertex="1">
          <mxGeometry x="340" y="410" width="50" height="30" as="geometry" />
        </mxCell>
        <mxCell id="kmhFah7H7Ga-kyeKgTLJ-77" style="edgeStyle=orthogonalEdgeStyle;rounded=0;orthogonalLoop=1;jettySize=auto;html=1;exitX=0.5;exitY=1;exitDx=0;exitDy=0;" parent="1" source="kmhFah7H7Ga-kyeKgTLJ-8" target="kmhFah7H7Ga-kyeKgTLJ-49" edge="1">
          <mxGeometry relative="1" as="geometry">
            <mxPoint x="294" y="590" as="targetPoint" />
          </mxGeometry>
        </mxCell>
        <mxCell id="kmhFah7H7Ga-kyeKgTLJ-78" style="edgeStyle=orthogonalEdgeStyle;rounded=0;orthogonalLoop=1;jettySize=auto;html=1;exitX=0.5;exitY=1;exitDx=0;exitDy=0;entryX=0;entryY=0.5;entryDx=0;entryDy=0;" parent="1" source="kmhFah7H7Ga-kyeKgTLJ-8" target="kmhFah7H7Ga-kyeKgTLJ-45" edge="1">
          <mxGeometry relative="1" as="geometry">
            <mxPoint x="294" y="670" as="targetPoint" />
          </mxGeometry>
        </mxCell>
        <mxCell id="kmhFah7H7Ga-kyeKgTLJ-8" value="&lt;div&gt;TechnoCore&lt;/div&gt;&lt;div&gt;&lt;br&gt;&lt;/div&gt;" style="aspect=fixed;perimeter=ellipsePerimeter;html=1;align=center;shadow=0;dashed=0;spacingTop=3;image;image=img/lib/active_directory/generic_server.svg;" parent="1" vertex="1">
          <mxGeometry x="280" y="410" width="28.000000000000004" height="50" as="geometry" />
        </mxCell>
        <mxCell id="kmhFah7H7Ga-kyeKgTLJ-81" style="edgeStyle=orthogonalEdgeStyle;rounded=0;orthogonalLoop=1;jettySize=auto;html=1;exitX=0.5;exitY=1;exitDx=0;exitDy=0;entryX=-0.004;entryY=0.275;entryDx=0;entryDy=0;entryPerimeter=0;" parent="1" source="kmhFah7H7Ga-kyeKgTLJ-9" target="kmhFah7H7Ga-kyeKgTLJ-49" edge="1">
          <mxGeometry relative="1" as="geometry">
            <mxPoint x="194" y="650" as="targetPoint" />
          </mxGeometry>
        </mxCell>
        <mxCell id="kmhFah7H7Ga-kyeKgTLJ-82" style="edgeStyle=orthogonalEdgeStyle;rounded=0;orthogonalLoop=1;jettySize=auto;html=1;exitX=0.5;exitY=1;exitDx=0;exitDy=0;entryX=0;entryY=0.5;entryDx=0;entryDy=0;" parent="1" source="kmhFah7H7Ga-kyeKgTLJ-9" target="kmhFah7H7Ga-kyeKgTLJ-53" edge="1">
          <mxGeometry relative="1" as="geometry">
            <mxPoint x="194" y="700" as="targetPoint" />
          </mxGeometry>
        </mxCell>
        <mxCell id="kmhFah7H7Ga-kyeKgTLJ-9" value="&lt;div&gt;Home Assistant&lt;/div&gt;" style="aspect=fixed;perimeter=ellipsePerimeter;html=1;align=center;shadow=0;dashed=0;spacingTop=3;image;image=img/lib/active_directory/generic_server.svg;" parent="1" vertex="1">
          <mxGeometry x="180" y="410" width="28.000000000000004" height="50" as="geometry" />
        </mxCell>
        <mxCell id="kmhFah7H7Ga-kyeKgTLJ-36" style="edgeStyle=orthogonalEdgeStyle;rounded=0;orthogonalLoop=1;jettySize=auto;html=1;entryX=0.5;entryY=1;entryDx=0;entryDy=0;entryPerimeter=0;" parent="1" source="kmhFah7H7Ga-kyeKgTLJ-11" target="kmhFah7H7Ga-kyeKgTLJ-4" edge="1">
          <mxGeometry relative="1" as="geometry" />
        </mxCell>
        <mxCell id="kmhFah7H7Ga-kyeKgTLJ-37" value="Eth 6" style="edgeLabel;html=1;align=center;verticalAlign=middle;resizable=0;points=[];" parent="kmhFah7H7Ga-kyeKgTLJ-36" vertex="1" connectable="0">
          <mxGeometry x="-0.1799" y="-1" relative="1" as="geometry">
            <mxPoint as="offset" />
          </mxGeometry>
        </mxCell>
        <mxCell id="kmhFah7H7Ga-kyeKgTLJ-11" value="&lt;div&gt;Printer/Scanner&lt;/div&gt;" style="points=[[0.22,0.185,0],[0.5,0,0],[0.78,0.185,0],[0.975,0.49,0],[1,0.73,0],[0.975,0.97,0],[0.5,1,0],[0.025,0.97,0],[0,0.73,0],[0.025,0.49,0]];verticalLabelPosition=bottom;html=1;verticalAlign=top;aspect=fixed;align=center;pointerEvents=1;shape=mxgraph.cisco19.printer;fillColor=#005073;strokeColor=none;" parent="1" vertex="1">
          <mxGeometry x="240" y="143" width="50" height="45" as="geometry" />
        </mxCell>
        <mxCell id="kmhFah7H7Ga-kyeKgTLJ-76" style="edgeStyle=orthogonalEdgeStyle;rounded=0;orthogonalLoop=1;jettySize=auto;html=1;entryX=0.025;entryY=0.975;entryDx=0;entryDy=0;entryPerimeter=0;" parent="1" source="kmhFah7H7Ga-kyeKgTLJ-12" target="kmhFah7H7Ga-kyeKgTLJ-2" edge="1">
          <mxGeometry relative="1" as="geometry" />
        </mxCell>
        <mxCell id="kmhFah7H7Ga-kyeKgTLJ-12" value="&lt;div&gt;TechnoCore &lt;br&gt;&lt;/div&gt;&lt;div&gt;IoT Devices&lt;/div&gt;&lt;div&gt;&lt;br&gt;&lt;/div&gt;" style="outlineConnect=0;dashed=0;verticalLabelPosition=bottom;verticalAlign=top;align=center;html=1;shape=mxgraph.aws3.sensor;fillColor=#5294CF;gradientColor=none;" parent="1" vertex="1">
          <mxGeometry x="480" y="400" width="76.5" height="90" as="geometry" />
        </mxCell>
        <mxCell id="kmhFah7H7Ga-kyeKgTLJ-19" value="&lt;div&gt;Eth 1&lt;/div&gt;" style="edgeStyle=orthogonalEdgeStyle;rounded=0;orthogonalLoop=1;jettySize=auto;html=1;entryX=1;entryY=0.5;entryDx=0;entryDy=0;entryPerimeter=0;" parent="1" source="kmhFah7H7Ga-kyeKgTLJ-18" target="kmhFah7H7Ga-kyeKgTLJ-4" edge="1">
          <mxGeometry relative="1" as="geometry" />
        </mxCell>
        <mxCell id="kmhFah7H7Ga-kyeKgTLJ-18" value="&lt;div&gt;Comcast Modem&lt;/div&gt;&lt;div&gt;&lt;br&gt;&lt;/div&gt;" style="shape=mxgraph.cisco.modems_and_phones.cable_modem;html=1;pointerEvents=1;dashed=0;fillColor=#036897;strokeColor=#ffffff;strokeWidth=2;verticalLabelPosition=bottom;verticalAlign=top;align=center;outlineConnect=0;" parent="1" vertex="1">
          <mxGeometry x="80" y="285" width="80" height="35" as="geometry" />
        </mxCell>
        <mxCell id="ZqNnFZviPH04GMw3fCPN-5" style="edgeStyle=orthogonalEdgeStyle;rounded=0;orthogonalLoop=1;jettySize=auto;html=1;exitX=0.75;exitY=1;exitDx=0;exitDy=0;entryX=0;entryY=0.5;entryDx=0;entryDy=0;" edge="1" parent="1" source="kmhFah7H7Ga-kyeKgTLJ-31" target="ZqNnFZviPH04GMw3fCPN-1">
          <mxGeometry relative="1" as="geometry">
            <mxPoint x="430" y="810" as="targetPoint" />
          </mxGeometry>
        </mxCell>
        <mxCell id="kmhFah7H7Ga-kyeKgTLJ-31" value="&lt;div&gt;Home Wireless Clients&lt;/div&gt;&lt;div&gt;(Laptops, Phones)&lt;/div&gt;" style="shape=image;html=1;verticalAlign=top;verticalLabelPosition=bottom;labelBackgroundColor=#ffffff;imageAspect=0;aspect=fixed;image=https://cdn2.iconfinder.com/data/icons/connectivity/32/wifi-128.png" parent="1" vertex="1">
          <mxGeometry x="400" y="103" width="40" height="40" as="geometry" />
        </mxCell>
        <mxCell id="kmhFah7H7Ga-kyeKgTLJ-40" style="edgeStyle=orthogonalEdgeStyle;rounded=0;orthogonalLoop=1;jettySize=auto;html=1;exitX=0.37;exitY=0.005;exitDx=0;exitDy=0;exitPerimeter=0;entryX=0.5;entryY=1;entryDx=0;entryDy=0;entryPerimeter=0;" parent="1" source="kmhFah7H7Ga-kyeKgTLJ-38" target="kmhFah7H7Ga-kyeKgTLJ-2" edge="1">
          <mxGeometry relative="1" as="geometry" />
        </mxCell>
        <mxCell id="kmhFah7H7Ga-kyeKgTLJ-38" value="&lt;div&gt;Home&lt;/div&gt;&lt;div&gt;IoT Devices&lt;/div&gt;" style="outlineConnect=0;dashed=0;verticalLabelPosition=bottom;verticalAlign=top;align=center;html=1;shape=mxgraph.aws3.sensor;fillColor=#5294CF;gradientColor=none;" parent="1" vertex="1">
          <mxGeometry x="620" y="400" width="76.5" height="90" as="geometry" />
        </mxCell>
        <mxCell id="kmhFah7H7Ga-kyeKgTLJ-44" value="VLANs" style="shape=table;startSize=30;container=1;collapsible=0;childLayout=tableLayout;fontStyle=1;align=center;" parent="1" vertex="1">
          <mxGeometry x="670" y="590" width="173.5" height="230" as="geometry" />
        </mxCell>
        <mxCell id="kmhFah7H7Ga-kyeKgTLJ-49" value="" style="shape=partialRectangle;html=1;whiteSpace=wrap;collapsible=0;dropTarget=0;pointerEvents=0;fillColor=none;top=0;left=0;bottom=0;right=0;points=[[0,0.5],[1,0.5]];portConstraint=eastwest;" parent="kmhFah7H7Ga-kyeKgTLJ-44" vertex="1">
          <mxGeometry y="30" width="173.5" height="40" as="geometry" />
        </mxCell>
        <mxCell id="kmhFah7H7Ga-kyeKgTLJ-50" value="&lt;div&gt;Home&lt;/div&gt;" style="shape=partialRectangle;html=1;whiteSpace=wrap;connectable=0;fillColor=none;top=0;left=0;bottom=0;right=0;overflow=hidden;" parent="kmhFah7H7Ga-kyeKgTLJ-49" vertex="1">
          <mxGeometry width="87" height="40" as="geometry" />
        </mxCell>
        <mxCell id="kmhFah7H7Ga-kyeKgTLJ-51" value="2" style="shape=partialRectangle;html=1;whiteSpace=wrap;connectable=0;fillColor=none;top=0;left=0;bottom=0;right=0;overflow=hidden;" parent="kmhFah7H7Ga-kyeKgTLJ-49" vertex="1">
          <mxGeometry x="87" width="87" height="40" as="geometry" />
        </mxCell>
        <mxCell id="kmhFah7H7Ga-kyeKgTLJ-53" value="" style="shape=partialRectangle;html=1;whiteSpace=wrap;collapsible=0;dropTarget=0;pointerEvents=0;fillColor=none;top=0;left=0;bottom=0;right=0;points=[[0,0.5],[1,0.5]];portConstraint=eastwest;" parent="kmhFah7H7Ga-kyeKgTLJ-44" vertex="1">
          <mxGeometry y="70" width="173.5" height="40" as="geometry" />
        </mxCell>
        <mxCell id="kmhFah7H7Ga-kyeKgTLJ-54" value="Home IoT" style="shape=partialRectangle;html=1;whiteSpace=wrap;connectable=0;fillColor=none;top=0;left=0;bottom=0;right=0;overflow=hidden;" parent="kmhFah7H7Ga-kyeKgTLJ-53" vertex="1">
          <mxGeometry width="87" height="40" as="geometry" />
        </mxCell>
        <mxCell id="kmhFah7H7Ga-kyeKgTLJ-55" value="3" style="shape=partialRectangle;html=1;whiteSpace=wrap;connectable=0;fillColor=none;top=0;left=0;bottom=0;right=0;overflow=hidden;" parent="kmhFah7H7Ga-kyeKgTLJ-53" vertex="1">
          <mxGeometry x="87" width="87" height="40" as="geometry" />
        </mxCell>
        <mxCell id="kmhFah7H7Ga-kyeKgTLJ-45" value="" style="shape=partialRectangle;html=1;whiteSpace=wrap;collapsible=0;dropTarget=0;pointerEvents=0;fillColor=none;top=0;left=0;bottom=0;right=0;points=[[0,0.5],[1,0.5]];portConstraint=eastwest;" parent="kmhFah7H7Ga-kyeKgTLJ-44" vertex="1">
          <mxGeometry y="110" width="173.5" height="40" as="geometry" />
        </mxCell>
        <mxCell id="kmhFah7H7Ga-kyeKgTLJ-46" value="&lt;div&gt;Farm IoT&lt;/div&gt;" style="shape=partialRectangle;html=1;whiteSpace=wrap;connectable=0;fillColor=none;top=0;left=0;bottom=0;right=0;overflow=hidden;" parent="kmhFah7H7Ga-kyeKgTLJ-45" vertex="1">
          <mxGeometry width="87" height="40" as="geometry" />
        </mxCell>
        <mxCell id="kmhFah7H7Ga-kyeKgTLJ-47" value="4" style="shape=partialRectangle;html=1;whiteSpace=wrap;connectable=0;fillColor=none;top=0;left=0;bottom=0;right=0;overflow=hidden;" parent="kmhFah7H7Ga-kyeKgTLJ-45" vertex="1">
          <mxGeometry x="87" width="87" height="40" as="geometry" />
        </mxCell>
        <mxCell id="kmhFah7H7Ga-kyeKgTLJ-70" style="shape=partialRectangle;html=1;whiteSpace=wrap;collapsible=0;dropTarget=0;pointerEvents=0;fillColor=none;top=0;left=0;bottom=0;right=0;points=[[0,0.5],[1,0.5]];portConstraint=eastwest;" parent="kmhFah7H7Ga-kyeKgTLJ-44" vertex="1">
          <mxGeometry y="150" width="173.5" height="40" as="geometry" />
        </mxCell>
        <mxCell id="kmhFah7H7Ga-kyeKgTLJ-71" value="Guest" style="shape=partialRectangle;html=1;whiteSpace=wrap;connectable=0;fillColor=none;top=0;left=0;bottom=0;right=0;overflow=hidden;" parent="kmhFah7H7Ga-kyeKgTLJ-70" vertex="1">
          <mxGeometry width="87" height="40" as="geometry" />
        </mxCell>
        <mxCell id="kmhFah7H7Ga-kyeKgTLJ-72" value="5" style="shape=partialRectangle;html=1;whiteSpace=wrap;connectable=0;fillColor=none;top=0;left=0;bottom=0;right=0;overflow=hidden;" parent="kmhFah7H7Ga-kyeKgTLJ-70" vertex="1">
          <mxGeometry x="87" width="87" height="40" as="geometry" />
        </mxCell>
        <mxCell id="ZqNnFZviPH04GMw3fCPN-1" style="shape=partialRectangle;html=1;whiteSpace=wrap;collapsible=0;dropTarget=0;pointerEvents=0;fillColor=none;top=0;left=0;bottom=0;right=0;points=[[0,0.5],[1,0.5]];portConstraint=eastwest;" vertex="1" parent="kmhFah7H7Ga-kyeKgTLJ-44">
          <mxGeometry y="190" width="173.5" height="40" as="geometry" />
        </mxCell>
        <mxCell id="ZqNnFZviPH04GMw3fCPN-2" value="Managment" style="shape=partialRectangle;html=1;whiteSpace=wrap;connectable=0;fillColor=none;top=0;left=0;bottom=0;right=0;overflow=hidden;" vertex="1" parent="ZqNnFZviPH04GMw3fCPN-1">
          <mxGeometry width="87" height="40" as="geometry" />
        </mxCell>
        <mxCell id="ZqNnFZviPH04GMw3fCPN-3" value="99" style="shape=partialRectangle;html=1;whiteSpace=wrap;connectable=0;fillColor=none;top=0;left=0;bottom=0;right=0;overflow=hidden;" vertex="1" parent="ZqNnFZviPH04GMw3fCPN-1">
          <mxGeometry x="87" width="87" height="40" as="geometry" />
        </mxCell>
        <mxCell id="kmhFah7H7Ga-kyeKgTLJ-80" style="edgeStyle=orthogonalEdgeStyle;rounded=0;orthogonalLoop=1;jettySize=auto;html=1;exitX=0.5;exitY=1;exitDx=0;exitDy=0;exitPerimeter=0;entryX=0.36;entryY=1;entryDx=0;entryDy=0;entryPerimeter=0;" parent="1" source="kmhFah7H7Ga-kyeKgTLJ-6" target="kmhFah7H7Ga-kyeKgTLJ-6" edge="1">
          <mxGeometry relative="1" as="geometry" />
        </mxCell>
      </root>
    </mxGraphModel>
  </diagram>
</mxfile>
